<svg xmlns="http://www.w3.org/2000/svg" viewBox="0 0 512 512">
  <rect width="512" height="512" rx="100" fill="#00a884"/>
  <path fill="#fff" d="M256.3 118.2c-75.6 0-137 61.4-137 137 0 24.5 6.5 48.3 18.7 69.2l-19.8 72.4 74.2-19.5c20 10.8 42.6 16.5 65.9 16.5 75.6 0 137-61.4 137-137s-61.4-137-137-137zm80.1 195.9c-3.4 9.5-19.7 18.2-27.1 19.3-7.4 1.1-14.3 5-47.9-10-40.7-18.2-66.3-59.5-68.3-62.3-2-2.7-16.5-21.9-16.5-41.8s10.4-29.7 14.1-33.7c3.7-4 8.1-5 10.8-5s5.4.1 7.7.1c2.5.1 5.8-1 9.1 6.9 3.4 8.1 11.4 27.8 12.4 29.8 1 2 1.7 4.4.3 7-1.3 2.7-2 4.4-4 6.7-2 2.4-4.2 5.3-6 7.1-2 2-4.1 4.2-1.8 8.2 2.4 4 10.5 17.3 22.5 28 15.5 13.8 28.5 18.1 32.5 20.1 4 2 6.4 1.7 8.7-.9 2.4-2.7 10.1-11.8 12.8-15.8 2.7-4 5.4-3.4 9.1-2 3.7 1.3 23.4 11 27.4 13s6.7 3 7.7 4.7c1 1.7 1 9.8-2.4 19.3z"/>
</svg>
